<mxfile host="app.diagrams.net" modified="2021-04-05T08:46:30.460Z" agent="5.0 (Windows NT 6.1; Win64; x64) AppleWebKit/537.36 (KHTML, like Gecko) Chrome/89.0.4389.114 Safari/537.36" etag="qj6mZoz2Il_x449thbwT" version="14.5.7" type="github">
  <diagram id="VGzDUhPXds9ryXppAXgT" name="Page-1">
    <mxGraphModel dx="1019" dy="555" grid="1" gridSize="10" guides="1" tooltips="1" connect="1" arrows="1" fold="1" page="1" pageScale="1" pageWidth="827" pageHeight="1169" math="0" shadow="0">
      <root>
        <mxCell id="0" />
        <mxCell id="1" parent="0" />
        <mxCell id="QK5LjDS8aJ_v-V0VOAx7-13" value="" style="ellipse;whiteSpace=wrap;html=1;aspect=fixed;" vertex="1" parent="1">
          <mxGeometry x="190" y="490" width="140" height="140" as="geometry" />
        </mxCell>
        <mxCell id="QK5LjDS8aJ_v-V0VOAx7-14" value="" style="ellipse;whiteSpace=wrap;html=1;aspect=fixed;" vertex="1" parent="1">
          <mxGeometry x="580" y="490" width="140" height="140" as="geometry" />
        </mxCell>
        <mxCell id="QK5LjDS8aJ_v-V0VOAx7-15" value="" style="shape=process;whiteSpace=wrap;html=1;backgroundOutline=1;fillColor=#FFFFFF;" vertex="1" parent="1">
          <mxGeometry x="394" y="370" width="120" height="60" as="geometry" />
        </mxCell>
        <mxCell id="QK5LjDS8aJ_v-V0VOAx7-16" value="" style="endArrow=classic;html=1;exitX=1.002;exitY=0.419;exitDx=0;exitDy=0;exitPerimeter=0;entryX=0.5;entryY=1;entryDx=0;entryDy=0;" edge="1" parent="1" source="QK5LjDS8aJ_v-V0VOAx7-13" target="QK5LjDS8aJ_v-V0VOAx7-15">
          <mxGeometry width="50" height="50" relative="1" as="geometry">
            <mxPoint x="430" y="580" as="sourcePoint" />
            <mxPoint x="480" y="530" as="targetPoint" />
          </mxGeometry>
        </mxCell>
        <mxCell id="QK5LjDS8aJ_v-V0VOAx7-17" value="" style="endArrow=classic;html=1;exitX=0.562;exitY=1.052;exitDx=0;exitDy=0;exitPerimeter=0;" edge="1" parent="1" source="QK5LjDS8aJ_v-V0VOAx7-15">
          <mxGeometry width="50" height="50" relative="1" as="geometry">
            <mxPoint x="430" y="580" as="sourcePoint" />
            <mxPoint x="570" y="550" as="targetPoint" />
          </mxGeometry>
        </mxCell>
        <mxCell id="QK5LjDS8aJ_v-V0VOAx7-18" value="" style="endArrow=classic;html=1;fontSize=14;entryX=0;entryY=0;entryDx=0;entryDy=0;" edge="1" parent="1">
          <mxGeometry width="50" height="50" relative="1" as="geometry">
            <mxPoint x="60" y="550" as="sourcePoint" />
            <mxPoint x="190" y="550" as="targetPoint" />
          </mxGeometry>
        </mxCell>
        <mxCell id="QK5LjDS8aJ_v-V0VOAx7-19" value="" style="endArrow=classic;html=1;fontSize=14;entryX=0;entryY=0;entryDx=0;entryDy=0;" edge="1" parent="1">
          <mxGeometry width="50" height="50" relative="1" as="geometry">
            <mxPoint x="720" y="550" as="sourcePoint" />
            <mxPoint x="850" y="550" as="targetPoint" />
          </mxGeometry>
        </mxCell>
        <mxCell id="QK5LjDS8aJ_v-V0VOAx7-20" value="Data Pembayaran" style="text;html=1;strokeColor=none;fillColor=none;align=center;verticalAlign=middle;whiteSpace=wrap;rounded=0;" vertex="1" parent="1">
          <mxGeometry x="80" y="530" width="100" height="20" as="geometry" />
        </mxCell>
        <mxCell id="QK5LjDS8aJ_v-V0VOAx7-21" value="5.1&lt;br&gt;Input Data&amp;nbsp;&lt;br&gt;Pembayaran" style="text;html=1;strokeColor=none;fillColor=none;align=center;verticalAlign=middle;whiteSpace=wrap;rounded=0;fontSize=15;" vertex="1" parent="1">
          <mxGeometry x="190" y="510" width="140" height="90" as="geometry" />
        </mxCell>
        <mxCell id="QK5LjDS8aJ_v-V0VOAx7-22" value="5.2&lt;br&gt;Menampilkan Data Pembayaran" style="text;html=1;strokeColor=none;fillColor=none;align=center;verticalAlign=middle;whiteSpace=wrap;rounded=0;fontSize=15;" vertex="1" parent="1">
          <mxGeometry x="585" y="515" width="130" height="80" as="geometry" />
        </mxCell>
        <mxCell id="QK5LjDS8aJ_v-V0VOAx7-23" value="PEMBAYARAN" style="text;html=1;strokeColor=none;fillColor=none;align=center;verticalAlign=middle;whiteSpace=wrap;rounded=0;fontSize=13;" vertex="1" parent="1">
          <mxGeometry x="409" y="385" width="90" height="30" as="geometry" />
        </mxCell>
        <mxCell id="QK5LjDS8aJ_v-V0VOAx7-24" value="Data Pembayaran" style="text;html=1;strokeColor=none;fillColor=none;align=center;verticalAlign=middle;whiteSpace=wrap;rounded=0;" vertex="1" parent="1">
          <mxGeometry x="730" y="520" width="100" height="20" as="geometry" />
        </mxCell>
      </root>
    </mxGraphModel>
  </diagram>
</mxfile>
